<svg xmlns="http://www.w3.org/2000/svg" viewBox="0 0 2260.53 518.66"><g id="Warstwa_2" data-name="Warstwa 2"><g id="Insert_Artwork" data-name="Insert Artwork"><path d="M519,211.45v47.88c0,117.89-95.91,213.8-213.79,213.8s-213.8-95.91-213.8-213.8,95.91-213.8,213.8-213.8h24.41V0H305.21C162.21,0,45.88,116.33,45.88,259.33S162.21,518.66,305.21,518.66,564.54,402.33,564.54,259.33V211.45Z" style="fill:#112c61"/><path d="M424.07,211.45v47.9a34.9,34.9,0,0,1-34.87,34.86H328.47V211.45H282.94v82.76H186.67v-81H0v45.53H141.14v81H389.2a80.49,80.49,0,0,0,80.4-80.4v-47.9Z" style="fill:#112c61"/><path d="M1062.89,211.46V298q0,34.69-19,53.63T990,370.6q-16.9,0-29.87-5.25a50.36,50.36,0,0,1-21.72-16.9,50.53,50.53,0,0,1-21.57,16.9Q904,370.6,886.55,370.6q-35.26,0-53.92-19T814,298V211.46h45.47v83.07q0,19.53,6.7,28.71t21,9.18q14.58,0,21.57-9.33t7-28.56V211.46h45.47v83.07q0,19.23,7,28.56t21.57,9.33q14.28,0,21-9.18t6.7-28.71V211.46Z" style="fill:#112c61"/><path d="M1201.48,330.52A52.36,52.36,0,0,0,1219.12,319l24.19,26.23q-22.15,25.36-64.7,25.36-26.53,0-46.93-10.35t-31.48-28.71q-11.09-18.36-11.08-41.68,0-23,10.93-41.53a76.62,76.62,0,0,1,30-28.86q19.08-10.33,43-10.35a87.72,87.72,0,0,1,40.8,9.48,72.92,72.92,0,0,1,29.3,27.4q10.92,17.92,10.93,42.41l-116,22.44a34.83,34.83,0,0,0,15.59,17.49q10.65,5.84,26.09,5.83A60.13,60.13,0,0,0,1201.48,330.52Zm-56.4-75.93q-10.78,11.09-11.36,30.61l76.36-14.87A34.26,34.26,0,0,0,1197,250.81q-9.92-7.29-23.9-7.29Q1155.86,243.52,1145.08,254.59Z" style="fill:#112c61"/><path d="M1414.26,219.18a72.18,72.18,0,0,1,28.12,28.27q10.2,18.23,10.2,42.41t-10.2,42.41a72.12,72.12,0,0,1-28.12,28.27,79.88,79.88,0,0,1-39.79,10.06q-32.35,0-49.26-20.4v18.07h-43.43V152h45.47v76.07q17.19-18.94,47.22-18.95A80,80,0,0,1,1414.26,219.18Zm-19,102.31q11.22-11.81,11.22-31.63t-11.22-31.62q-11.22-11.81-28.71-11.81t-28.71,11.81q-11.22,11.81-11.22,31.62t11.22,31.63q11.22,11.81,28.71,11.8T1395.31,321.49Z" style="fill:#112c61"/><path d="M1510.73,360.25a77.44,77.44,0,0,1-31.19-28.71q-11.22-18.36-11.22-41.68t11.22-41.68a77.51,77.51,0,0,1,31.19-28.71q20-10.33,45-10.35,24.78,0,43.28,10.35a61.4,61.4,0,0,1,27,29.59L1590.74,268q-12.24-21.57-35.27-21.57-17.78,0-29.44,11.66t-11.66,31.77q0,20.11,11.66,31.77t29.44,11.66q23.31,0,35.27-21.57L1626,331a62.65,62.65,0,0,1-27,29.15q-18.51,10.49-43.28,10.49Q1530.7,370.6,1510.73,360.25Z" style="fill:#112c61"/><path d="M1790.54,226.61q17.93,17.49,17.92,51.89v89.77H1763V285.49q0-18.64-8.16-27.83t-23.61-9.19q-17.21,0-27.4,10.64t-10.2,31.63v77.53h-45.47V152h45.47v75.78a60.56,60.56,0,0,1,21.86-13.85,79.23,79.23,0,0,1,28-4.81Q1772.61,209.12,1790.54,226.61Z" style="fill:#112c61"/><path d="M1949.09,330.52A52.36,52.36,0,0,0,1966.73,319l24.19,26.23q-22.15,25.36-64.7,25.36-26.54,0-46.93-10.35t-31.48-28.71q-11.08-18.36-11.08-41.68,0-23,10.93-41.53a76.62,76.62,0,0,1,30-28.86q19.08-10.33,43-10.35a87.72,87.72,0,0,1,40.8,9.48,72.92,72.92,0,0,1,29.3,27.4q10.92,17.92,10.93,42.41l-116,22.44a34.83,34.83,0,0,0,15.59,17.49q10.65,5.84,26.09,5.83A60.13,60.13,0,0,0,1949.09,330.52Zm-56.4-75.93q-10.79,11.09-11.36,30.61l76.36-14.87a34.26,34.26,0,0,0-13.11-19.52q-9.91-7.29-23.9-7.29Q1903.48,243.52,1892.69,254.59Z" style="fill:#112c61"/><path d="M2073.7,215h26.83v35h-25.67V368.27h-45.47V208q0-26.82,15.89-42.56T2090,149.67a83.29,83.29,0,0,1,19.38,2.18,47.16,47.16,0,0,1,15.3,6.27l-11.95,32.93a31.07,31.07,0,0,0-18.36-5.53q-20.7,0-20.69,22.73Z" style="fill:#112c61"/><path d="M2148.31,365.79q-18.66-4.82-29.73-12.1l15.16-32.64A95.2,95.2,0,0,0,2159.1,332a106.15,106.15,0,0,0,29.14,4.23q28.86,0,28.86-14.29,0-6.69-7.87-9.61t-24.19-5a233.53,233.53,0,0,1-31.77-6.7,49.34,49.34,0,0,1-21.72-13.41q-9.18-9.62-9.18-27.4a43,43,0,0,1,8.6-26.38q8.59-11.51,25.07-17.92t38.91-6.42a152.69,152.69,0,0,1,33.08,3.65q16.45,3.64,27.25,10l-15.15,32.36A90.53,90.53,0,0,0,2195,243.52q-14.58,0-21.86,4.08t-7.29,10.49q0,7.29,7.87,10.2t25.07,5.54a268.8,268.8,0,0,1,31.48,6.85,47.28,47.28,0,0,1,21.27,13.26q9,9.63,9,26.82a41.45,41.45,0,0,1-8.74,25.94q-8.74,11.37-25.51,17.63t-39.78,6.27A152.17,152.17,0,0,1,2148.31,365.79Z" style="fill:#112c61"/></g></g></svg>